<svg width="75" height="75" viewBox="0 0 75 75" fill="none" xmlns="http://www.w3.org/2000/svg">
<circle cx="37.5" cy="37.5" r="37.5" fill="#07D1BB"/>
<g clip-path="url(#clip0_6_334)">
<path d="M26.5271 54.8632C26.3229 54.8063 26.0708 54.6463 25.8896 54.4568C25.8271 54.3937 25.8167 54.3705 25.8375 54.3537C25.8521 54.341 25.9771 54.3032 26.1146 54.2695C26.7229 54.1158 27.0896 53.8695 27.2792 53.4863C27.4271 53.1916 27.45 53.04 27.4896 52.0842C27.5292 51.141 27.5729 50.8295 27.7292 50.3432C28.1333 49.0968 29.1021 48.2674 30.5104 47.9579C30.9188 47.8695 31.2479 47.8358 31.7188 47.8358C32.2 47.8337 32.4208 47.8568 32.875 47.9474C33.5125 48.0758 33.975 48.2442 34.7563 48.6295C36.2417 49.3642 37.8625 50.1137 38.2208 50.2316C38.8688 50.4463 39.9458 50.3579 40.9542 50.0084C41.4583 49.8337 41.6167 49.7368 42.5708 49.0316C43.9 48.0484 44.2292 47.7221 45.0063 46.621C45.3229 46.1747 45.5708 45.7768 45.625 45.6358C45.7188 45.381 45.8958 45.2147 46.1229 45.1663C46.3521 45.1179 46.85 45.1853 47.2229 45.3179C47.9396 45.5705 48.4083 46.0779 48.6667 46.8737C48.9375 47.7074 48.9458 48.5558 48.6938 49.3474C48.5729 49.7242 48.1833 50.5642 47.9458 50.96C47.1125 52.3516 45.9667 53.4105 44.5229 54.1242C44.0729 54.3474 43.9188 54.3979 43.3708 54.5032C42.7375 54.6253 42.5125 54.6505 42.1667 54.6358C41.9063 54.6253 41.5458 54.5747 41.4938 54.5432C41.4813 54.5347 41.4458 54.5263 41.4167 54.5221C41.2979 54.5095 40.8313 54.4063 40.6563 54.3558C40.425 54.2863 39.9708 54.1095 39.7083 53.9853C39.5479 53.9095 35.3792 51.2821 34.7125 50.8379C34.4875 50.6863 33.7333 50.301 33.4313 50.1832C32.7479 49.9137 32.1125 49.7916 31.3854 49.7916C30.95 49.7916 30.7708 49.8126 30.4479 49.9095C29.1979 50.2758 28.6646 51.5326 28.9917 53.3368C29.0208 53.4926 29.0667 53.7095 29.0917 53.8168C29.1229 53.9389 29.1333 54.0147 29.1208 54.0232C29.0896 54.0442 28.9146 53.8589 28.7125 53.5958C28.6146 53.4653 28.5271 53.3579 28.5188 53.3579C28.5104 53.3579 28.4979 53.3832 28.4917 53.4126C28.4833 53.4442 28.4354 53.5579 28.3854 53.6674C28.1729 54.1263 27.85 54.5074 27.55 54.6526C27.3146 54.7663 27.1542 54.8232 26.9729 54.861C26.7813 54.901 26.6708 54.901 26.5271 54.8632Z" fill="#333333"/>
<path d="M34.9604 48.6968C34.9458 48.68 34.9437 48.661 34.9541 48.6547C34.9666 48.6484 34.9854 48.6568 34.9979 48.6716C35.0125 48.6884 35.0146 48.7074 35.0041 48.7137C34.9916 48.72 34.9729 48.7116 34.9604 48.6968Z" fill="#333333"/>
<path d="M49.2562 47.2821C49.2437 47.2611 49.2083 47.1516 49.1771 47.0421C48.9666 46.3074 48.7333 45.88 48.325 45.4905C47.8771 45.0611 47.3583 44.8337 46.6333 44.7432C46.3521 44.7095 45.2791 44.7095 44.9896 44.7432C44.4104 44.8105 43.9812 44.9011 43.4687 45.0632C43.1562 45.1621 42.6166 45.2758 42.1979 45.3305C41.8041 45.3811 40.9062 45.3811 40.5771 45.3305C40.0375 45.2463 39.5208 45.0926 39.0937 44.8863C38.9041 44.7958 38.8 44.7242 38.5 44.48C37.85 43.9537 37.6812 43.7958 37.5229 43.5726C37.1062 42.9811 36.2896 41.5263 36.0958 41.0295C36.0187 40.8337 36.0041 40.7389 36.0416 40.7158C36.0541 40.7074 36.2812 40.9158 36.5458 41.1789C36.9375 41.5705 37.0312 41.6505 37.0521 41.6274C37.3083 41.3474 38.3271 40.2926 38.3479 40.2884C38.3979 40.2758 38.4333 40.3242 38.6125 40.6295C38.8062 40.96 38.9437 41.1537 39.0541 41.2505C39.0937 41.2863 39.2229 41.3621 39.3396 41.4189C39.9979 41.7368 40.6271 41.8042 41.3958 41.64C41.5271 41.6126 42.0666 41.4526 42.5937 41.2863C43.1208 41.12 43.6458 40.9663 43.7604 40.9453C43.9229 40.9137 44.0708 40.9053 44.4271 40.9053C44.8833 40.9053 44.8875 40.9053 45.1979 40.9832C45.6271 41.0884 45.9187 41.1895 46.2458 41.3474C46.7333 41.5853 47.0854 41.84 47.5021 42.2611C47.9791 42.7453 48.3479 43.2842 48.7312 44.0547C49.0812 44.7621 49.2354 45.1916 49.3479 45.7768C49.3958 46.0295 49.4041 46.1158 49.4041 46.5053C49.4062 46.8695 49.4 46.9747 49.3687 47.0989C49.3458 47.1811 49.3166 47.2674 49.3021 47.2863C49.2771 47.3221 49.275 47.3221 49.2562 47.2821Z" fill="#333333"/>
<path d="M36.8791 41.0063C36.8354 40.9853 36.4562 40.5558 35.8166 39.8063C34.5625 38.3347 34.6437 38.4379 34.5208 38.1895C34.3 37.7389 34.2646 37.2758 34.4083 36.6884C34.4604 36.4737 34.9312 35.1747 35.1146 34.7368C35.1687 34.6105 35.2979 34.3263 35.4062 34.1053C35.7166 33.4653 35.8062 33.1579 35.8271 32.6505C35.8479 32.1284 35.7458 31.5768 35.5146 30.9726C35.4729 30.8632 35.4666 30.8274 35.4875 30.8189C35.5166 30.8084 36.3979 31.1032 36.7812 31.2526C36.9083 31.3011 37.0208 31.3411 37.0312 31.3411C37.0437 31.3432 37.35 31.2274 37.7125 31.0863C38.0771 30.9432 38.3812 30.8337 38.3916 30.84C38.4021 30.8463 38.4021 30.8947 38.3937 30.9516C38.3854 31.0063 38.3646 31.3011 38.3521 31.6063C38.3125 32.4274 38.3625 33.3474 38.4687 33.76C38.5104 33.9221 38.5937 34.1095 38.9583 34.8737C39.4604 35.9242 39.6854 36.4484 39.8041 36.8442C39.8562 37.0147 39.8625 37.0632 39.8625 37.3684C39.8625 37.6779 39.8583 37.7179 39.8062 37.8737C39.7354 38.0884 39.6562 38.2274 39.5146 38.3832C39.4541 38.4505 38.9375 39.0274 38.3666 39.6632C37.7958 40.3011 37.2958 40.8526 37.2541 40.8905C37.1729 40.9642 37.0333 41.0421 36.9791 41.0421C36.9625 41.0421 36.9166 41.0253 36.8791 41.0063ZM37.3479 31.9347C37.2521 31.8421 36.8625 31.84 36.7458 31.9305C36.7146 31.9558 36.7291 31.9874 36.8708 32.2316C36.9604 32.3832 37.0396 32.5179 37.05 32.5347C37.0646 32.5558 37.1104 32.4821 37.2208 32.2611C37.3333 32.0316 37.3646 31.9516 37.3479 31.9347Z" fill="#333333"/>
<path d="M31.9583 36.84C31.5625 36.7326 31.4083 36.5621 31.4104 36.2316C31.4104 35.9853 31.4791 35.8547 31.8875 35.3011C32.0166 35.1263 32.1354 34.9558 32.1521 34.9221C32.1875 34.8526 32.1666 34.7895 32.1083 34.7895C32.0896 34.7895 31.7833 35.0863 31.4271 35.4505C30.6979 36.1979 30.7541 36.1579 30.4021 36.1579C29.9354 36.1579 29.3687 35.9347 29.1208 35.6568C28.9396 35.4526 29.0291 35.3095 29.7562 34.6337C29.8979 34.5011 30 34.3916 29.9958 34.3726C29.9791 34.2842 29.9271 34.2968 29.6083 34.4716C29.1875 34.7032 28.825 34.8758 28.5604 34.9705C28.375 35.0379 28.3166 35.0484 28.1562 35.0505L27.9687 35.0526L27.5604 34.7537C27.1458 34.4484 27.0833 34.3853 27.1125 34.2884C27.1375 34.2147 27.2166 34.1621 27.75 33.8779C28.5562 33.4484 28.9041 33.2337 28.8916 33.1747C28.8771 33.0926 28.8291 33.0989 28.1458 33.2695C27.7729 33.3642 27.3333 33.4842 27.1666 33.5389C26.7125 33.6884 26.4875 33.6905 26.2666 33.5495C26.1687 33.4863 26.0583 33.3368 25.7604 32.8568C25.6062 32.6063 25.5729 32.5137 25.6041 32.4189C25.6458 32.2968 25.7125 32.2674 26.2 32.1663C27.1187 31.9789 27.6604 31.8316 27.6812 31.7642C27.6979 31.7137 27.425 31.6611 26.7187 31.5811C26.1062 31.5095 25.2937 31.4379 25.2604 31.4484C25.1646 31.4863 24.675 30.8063 24.4125 30.2716C24.2396 29.9158 24.2125 29.7789 24.2979 29.6989C24.3271 29.6716 24.3854 29.6442 24.4312 29.64C24.475 29.6337 24.8854 29.6716 25.3437 29.7242C25.8021 29.7768 26.3708 29.8358 26.6104 29.8547C27.0187 29.8905 27.0437 29.8905 27.0771 29.8568C27.1479 29.7853 27.0896 29.7516 26.8312 29.7095C26.3437 29.6316 25.2708 29.44 24.9771 29.3811C24.3104 29.2442 24.2458 29.2147 23.9333 28.9179C23.2937 28.3095 22.2521 26.7979 22.25 26.4716C22.25 26.3768 22.3187 26.3053 22.4125 26.3053C22.45 26.3053 23.175 26.5474 24.025 26.8421C25.2083 27.2526 25.575 27.3726 25.5979 27.3558C25.675 27.2905 25.6312 27.2611 25.1312 27.0316C24.4396 26.7137 23.9333 26.4968 23.5937 26.3705C22.5125 25.9684 21.9729 25.6274 21.5729 25.0884C21.3666 24.8105 21.2291 24.5158 21.0083 23.8758C20.9104 23.5895 20.9208 23.4421 21.0396 23.4421C21.2166 23.4421 22.575 24 24.5729 24.8947C25.475 25.2989 25.3958 25.2695 25.4271 25.2232C25.4854 25.1453 25.6541 25.24 23.0937 23.9158C21.4104 23.0442 21.1791 22.9116 20.7854 22.6042C20.1166 22.0842 19.7791 21.6042 19.4291 20.6779C19.2396 20.1789 19.1208 19.7411 19.1166 19.5263L19.1146 19.3474L19.1812 19.3411C19.3416 19.3242 20.0646 19.6863 23.3021 21.4C25.2437 22.4274 25.8479 22.7432 26.5166 23.0821C26.9854 23.32 27.0791 23.36 27.1479 23.3537L27.2312 23.3474L27.1062 23.1537C26.8937 22.8232 26.6646 22.6211 26.2187 22.3747C26.1166 22.3179 25.9104 22.2 25.7604 22.1158C25.6125 22.0316 25.3208 21.8821 25.1146 21.7853C24.9083 21.6905 24.7062 21.5937 24.6666 21.5747C24.5146 21.4968 24.5437 21.3158 24.7062 21.3158C24.975 21.3158 26.2583 21.9305 26.9291 22.3789C27.3021 22.6295 27.5291 22.9011 28.2312 23.9474C28.6583 24.5853 28.8291 24.8926 29.1458 25.6C29.5083 26.4063 29.9687 27.5095 30.4416 28.7053C30.7708 29.5368 30.8833 29.7432 31.1562 30.0232C31.3187 30.1895 31.3708 30.2295 31.5416 30.3116C31.65 30.3642 31.8354 30.4316 31.9521 30.4611C32.9291 30.7158 33.725 31.1453 34.4104 31.7874C34.7437 32.1011 34.9354 32.4105 35.0229 32.7811C35.0791 33.0211 35.0708 33.3916 35.0062 33.5579C34.9291 33.7579 33.1854 36.4358 33.0312 36.5895C32.9354 36.6884 32.7333 36.7958 32.5625 36.8421C32.4166 36.8821 32.1062 36.88 31.9583 36.84Z" fill="#333333"/>
<path d="M41.45 36.5474C41.2979 36.5074 41.0541 36.3789 40.9708 36.2947C40.8604 36.1832 40.0666 34.9853 39.2666 33.7263C38.9562 33.2358 38.9479 33.2126 38.9479 32.8526C38.9479 32.5305 38.977 32.3916 39.0958 32.1389C39.202 31.9095 39.3229 31.7495 39.5812 31.501C40.1958 30.9053 40.9145 30.4968 41.8145 30.2316C42.3291 30.0779 42.4166 30.0463 42.5437 29.9726C42.7312 29.861 42.9208 29.6737 43.0645 29.4568C43.2395 29.1916 43.2666 29.1326 43.6312 28.221C44.3541 26.4126 44.8291 25.3074 45.2062 24.5684C45.4937 24.0021 46.3354 22.7726 46.6979 22.3916C46.9479 22.1263 47.3145 21.8947 48.0937 21.501C48.5437 21.2737 48.9916 21.08 49.1854 21.0316C49.3041 21 49.3187 21 49.3645 21.0295C49.425 21.0695 49.45 21.1474 49.4187 21.2042C49.4062 21.2274 49.2812 21.2989 49.1312 21.3684C48.7645 21.5368 48.3312 21.7558 48.1229 21.88C48.027 21.9368 47.8729 22.0232 47.7812 22.0737C47.3062 22.3347 47.0437 22.5789 46.8229 22.9642L46.7666 23.0632H46.8333C46.8687 23.0632 46.9645 23.0358 47.0458 23C47.2583 22.9095 48.7187 22.1474 50.6875 21.1053C52.525 20.1305 54.2458 19.2442 54.552 19.1179C54.675 19.0674 54.7625 19.0421 54.8125 19.0463C54.8833 19.0526 54.8854 19.0547 54.8916 19.1537C54.902 19.3095 54.8437 19.5579 54.6875 20.0316C54.3791 20.9684 54.15 21.3895 53.6791 21.88C53.3479 22.2253 53.0354 22.4653 52.5479 22.7495C52.4479 22.8084 51.6625 23.2232 50.802 23.6674C48.4604 24.8821 48.5625 24.8274 48.5625 24.8842C48.5625 24.9621 48.6125 24.9621 48.7854 24.8821C48.875 24.84 49.252 24.6716 49.625 24.5053C51.4708 23.6863 52.6666 23.1916 52.9312 23.141C53.0791 23.1116 53.0979 23.2842 52.9812 23.6063C52.9479 23.6947 52.8875 23.8632 52.8458 23.9789C52.7312 24.2926 52.6 24.5516 52.4562 24.7495C52.0666 25.2821 51.4875 25.6716 50.5895 26C50.1645 26.1558 49.7625 26.3263 49.052 26.6484C48.4458 26.9242 48.3854 26.9558 48.3854 27.0021C48.3854 27.0379 48.3979 27.0547 48.427 27.0589C48.452 27.0632 49.1687 26.8232 50.0208 26.5263C51.052 26.1684 51.5875 25.9916 51.6208 26C51.702 26.021 51.75 26.0863 51.75 26.1768C51.75 26.4779 50.7895 27.8884 50.1354 28.5474C49.8312 28.8547 49.727 28.9179 49.402 28.9979C49.052 29.0821 48.527 29.181 47.6562 29.3263C46.9312 29.4484 46.8625 29.4674 46.9104 29.5432C46.9291 29.5726 46.9604 29.5789 47.0854 29.5747C47.3291 29.5663 47.6979 29.5305 48.6 29.4295C49.5333 29.3263 49.5812 29.3242 49.6645 29.3684C49.7666 29.421 49.777 29.5179 49.7 29.72C49.5854 30.0295 49.3583 30.4253 49.0916 30.7832C48.8312 31.1305 48.8208 31.1368 48.5604 31.1558C48.2208 31.1789 47.1645 31.2884 46.8437 31.3347C46.3479 31.4063 46.2645 31.4337 46.3458 31.4947C46.4333 31.5579 46.9541 31.6926 47.7812 31.8632C48.0104 31.9095 48.2229 31.9579 48.2541 31.9705C48.35 32.0105 48.4062 32.0884 48.4041 32.181C48.4 32.2863 48.352 32.3789 48.0708 32.8189C47.8812 33.1158 47.8291 33.1853 47.7395 33.2442C47.5229 33.3895 47.2875 33.3895 46.8479 33.2442C46.5687 33.1495 45.2562 32.8105 45.1729 32.8105C45.127 32.8105 45.0979 32.8547 45.1145 32.901C45.1395 32.9621 45.6645 33.2716 46.3562 33.6337C46.7395 33.8337 46.8958 33.9474 46.8958 34.0274C46.8958 34.0505 46.8729 34.0989 46.8437 34.1326C46.7875 34.2021 46.1625 34.6695 46.0416 34.7326C45.9104 34.8021 45.65 34.76 45.2666 34.6042C45.0916 34.5326 44.5395 34.2568 44.2666 34.1053C44.0854 34.0021 44.0145 33.9916 44.0041 34.0653C44 34.0989 44.0729 34.1789 44.3208 34.4084C44.8333 34.8821 44.9583 35.0379 44.9583 35.2042C44.9583 35.2737 44.9437 35.2968 44.8354 35.4C44.4875 35.7284 43.8 35.9305 43.3416 35.8379L43.2208 35.8126L42.575 35.1537C42.2208 34.7916 41.9145 34.4947 41.8937 34.4947C41.875 34.4947 41.8479 34.5074 41.8354 34.5242C41.8 34.5663 41.8333 34.6274 42.075 34.9516C42.5062 35.5305 42.5875 35.6821 42.5916 35.9137C42.5958 36.2168 42.4583 36.3979 42.1416 36.5053C41.9291 36.5768 41.6375 36.5958 41.45 36.5474Z" fill="#333333"/>
<path d="M35.3666 30.3263C34.6562 29.9453 34.0687 29.6211 34.0604 29.6063C34.0437 29.5747 33.3791 27.6779 33.3708 27.6337C33.3666 27.6168 33.3791 27.6 33.3958 27.5958C33.4125 27.5916 33.8854 27.7579 34.4458 27.9642L35.4666 28.3411L36.0875 29.6632C36.4291 30.3895 36.7021 30.9916 36.6958 31.0021C36.6896 31.0126 36.6791 31.0211 36.6708 31.0189C36.6625 31.0189 36.075 30.7074 35.3666 30.3263Z" fill="#333333"/>
<path d="M37.3229 31C37.3125 30.9832 38.5166 28.4526 38.5916 28.3368C38.6104 28.3095 38.675 28.2716 38.7437 28.2463C39.9 27.84 40.6333 27.5916 40.6479 27.6021C40.6583 27.6084 40.6666 27.6232 40.6666 27.6358C40.6666 27.6884 40.0312 29.4042 39.9187 29.6568C39.8875 29.7305 39.8416 29.8063 39.8208 29.8253C39.7979 29.8442 39.552 29.9705 39.2708 30.1053C38.627 30.4168 37.3541 31.0211 37.3437 31.0211C37.3395 31.0211 37.3291 31.0126 37.3229 31Z" fill="#333333"/>
<path d="M36.9312 30.7537C36.625 30.1389 35.7271 28.2084 35.7354 28.1811C35.7479 28.1389 36.9521 25.3053 36.9812 25.2484C37 25.2126 37.0083 25.2105 37.0312 25.2337C37.0542 25.2589 38.3333 28.2 38.3333 28.2295C38.3333 28.2568 37.0437 30.8695 37.025 30.8821C37.0104 30.8905 36.975 30.8421 36.9312 30.7537Z" fill="#333333"/>
<path d="M36.8438 52.8316C36.798 52.8105 36.6771 52.7579 36.573 52.7158C36.4709 52.6716 36.3625 52.6253 36.3334 52.6105C36.3042 52.5958 36.2438 52.5726 36.198 52.5579C36.1521 52.5432 36.1063 52.5242 36.0938 52.5158C36.0834 52.5053 36.0125 52.4779 35.9375 52.4505C35.8625 52.4253 35.7834 52.3916 35.7605 52.3789C35.7375 52.3642 35.6959 52.3453 35.6667 52.3368C35.6125 52.32 35.6042 52.3179 35.3021 52.1895C35.0625 52.0863 34.9313 52.0316 34.698 51.9368C34.5959 51.8947 34.4334 51.8274 34.3396 51.7874C34.2459 51.7474 34.1605 51.7158 34.15 51.7158C34.1375 51.7158 34.1021 51.701 34.0688 51.6842C33.9896 51.6442 33.8521 51.5832 33.6875 51.52C33.6125 51.4905 33.523 51.4505 33.4896 51.4337C33.4542 51.4147 33.4126 51.4 33.3938 51.4C33.3771 51.4 33.3542 51.3916 33.3417 51.3832C33.3313 51.3747 33.2667 51.3432 33.198 51.3179C33.1292 51.2905 33.0271 51.2463 32.9688 51.221C32.9125 51.1958 32.775 51.1389 32.6667 51.0968C32.5584 51.0526 32.4438 51.0042 32.4125 50.9874C32.3834 50.9705 32.348 50.9579 32.3355 50.9579C32.3105 50.9579 32.1521 50.8905 32.0584 50.84C32.0292 50.8232 31.9917 50.8105 31.975 50.8105C31.9605 50.8105 31.9021 50.7874 31.8459 50.7579C31.7896 50.7284 31.7271 50.7053 31.7105 50.7053C31.6667 50.7053 31.5542 50.581 31.5 50.4737C31.425 50.3263 31.4417 50.2716 31.6084 50.1179L31.7542 49.981L32.0792 50.0632C32.8605 50.2568 34.2334 50.9432 35.5292 51.7853C35.6542 51.8653 35.9313 52.0316 36.1438 52.1537C36.5792 52.4021 37.1396 52.741 37.1563 52.7684C37.1688 52.7895 37.0125 52.8737 36.9626 52.8716C36.9438 52.8716 36.8896 52.8526 36.8438 52.8316Z" fill="#333333"/>
<path d="M28.5771 48.1832C28.5438 48.1642 28.3938 48.0063 28.2438 47.8316C27.1313 46.5537 24.8396 43.9642 24.475 43.5726C23.9979 43.0632 23.7646 42.6211 23.6542 42.0211C23.6209 41.8421 23.6146 41.7095 23.6167 41.1474C23.6167 40.7832 23.6188 38.3558 23.6209 35.7537C23.625 32.6232 23.6334 31.0189 23.6479 31.0084C23.6854 30.9874 23.725 31.04 24.0563 31.5453C24.2354 31.8189 24.5709 32.3305 24.8042 32.6842C25.2479 33.3621 25.3229 33.4947 25.4042 33.7411C25.5313 34.1242 25.5229 33.8042 25.5209 38.7053L25.5188 43.1789L25.5792 43.2737C25.7063 43.4758 26.1625 44.0358 27.7125 45.8989C28.6396 47.0126 29.1209 47.6021 29.1917 47.7116C29.25 47.8021 29.2396 47.8863 29.1625 47.96C28.9021 48.2042 28.7209 48.2737 28.5771 48.1832Z" fill="#333333"/>
<path d="M48.9479 43.8021C48.8479 43.7558 48.6479 43.5474 48.5854 43.4253L48.5417 43.3389V38.3621C48.5417 33.4568 48.5417 33.3832 48.5834 33.2211C48.6167 33.0905 48.6834 32.9516 48.9084 32.5495C49.8 30.96 50.1146 30.4589 50.375 30.2126C50.4354 30.1558 50.4896 30.12 50.5 30.1284C50.5229 30.1516 50.4875 40.2063 50.4584 41.5242L50.4396 42.52L50.3875 42.6084C50.3188 42.7221 50.0729 42.9789 49.6021 43.4295C49.1459 43.8653 49.1167 43.8821 48.9479 43.8021Z" fill="#333333"/>
<path d="M29.9271 26.4863C29.8063 26.4295 29.7104 26.2758 29.6271 26.0021C29.55 25.7495 29.575 25.6042 29.7146 25.4968C29.7521 25.4674 30.1084 25.32 30.5084 25.1684C31.1709 24.9179 32.6146 24.3579 35.5792 23.2021C36.35 22.9011 36.7354 22.7621 36.8354 22.7453C37.0834 22.7074 37.1854 22.7347 38.2459 23.1389C41.8729 24.52 43.8125 25.2611 43.8771 25.2968C43.9709 25.3432 44.0542 25.4421 44.0729 25.5242C44.0813 25.5684 44.0563 25.6695 43.9813 25.8905C43.925 26.0589 43.8688 26.2147 43.8584 26.2358C43.8167 26.3095 43.7125 26.3937 43.6334 26.4126C43.4542 26.4547 43.65 26.5263 39.7938 25.0168C38.4042 24.4737 37.2042 24.0147 37.1271 23.9979C36.8063 23.9305 36.6604 23.96 35.9167 24.2526C35.6021 24.3768 34.4104 24.8379 33.2709 25.2779C32.1313 25.7179 30.9646 26.1705 30.6771 26.2863C30.3917 26.4021 30.1188 26.5011 30.0729 26.5053C30.025 26.5116 29.9625 26.5032 29.9271 26.4863Z" fill="#333333"/>
</g>
<defs>
<clipPath id="clip0_6_334">
<rect width="36" height="36" fill="white" transform="translate(19 19)"/>
</clipPath>
</defs>
</svg>
