<svg width="128" height="42" viewBox="0 0 128 42" fill="none" xmlns="http://www.w3.org/2000/svg">
<rect x="24" y="7" width="104" height="27" rx="13.5" fill="#333333"/>
<path d="M51.8253 19.0696C51.7424 18.8011 51.6281 18.5608 51.4822 18.3487C51.3397 18.1333 51.1674 17.9493 50.9652 17.7969C50.7663 17.6444 50.5376 17.5301 50.2791 17.4538C50.0206 17.3743 49.7389 17.3345 49.4339 17.3345C48.8871 17.3345 48.3999 17.4721 47.9723 17.7472C47.5447 18.0223 47.2083 18.4266 46.9631 18.9602C46.7211 19.4905 46.6001 20.1368 46.6001 20.8991C46.6001 21.6681 46.7211 22.3194 46.9631 22.853C47.205 23.3866 47.5414 23.7926 47.9723 24.071C48.4032 24.3461 48.9036 24.4837 49.4737 24.4837C49.9908 24.4837 50.4382 24.3842 50.8161 24.1854C51.1972 23.9865 51.4905 23.7048 51.696 23.3402C51.9015 22.9723 52.0043 22.5414 52.0043 22.0476L52.4219 22.1122H49.6577V20.6705H53.7891V21.8935C53.7891 22.7652 53.6035 23.5192 53.2322 24.1555C52.861 24.7919 52.3506 25.2824 51.701 25.6271C51.0514 25.9685 50.3056 26.1392 49.4638 26.1392C48.5258 26.1392 47.7022 25.9287 46.9929 25.5078C46.2869 25.0836 45.7351 24.482 45.3374 23.7031C44.9429 22.9209 44.7457 21.9929 44.7457 20.919C44.7457 20.0971 44.8617 19.3629 45.0938 18.7166C45.3291 18.0703 45.6572 17.5218 46.0781 17.071C46.4991 16.617 46.9929 16.2723 47.5597 16.0369C48.1264 15.7983 48.7429 15.679 49.4091 15.679C49.9725 15.679 50.4979 15.7618 50.9851 15.9276C51.4723 16.09 51.9048 16.322 52.2827 16.6236C52.6638 16.9252 52.977 17.2831 53.2223 17.6974C53.4676 18.1117 53.6283 18.5691 53.7045 19.0696H51.8253ZM64.6706 20.9091C64.6706 22.0062 64.4651 22.9458 64.0542 23.728C63.6465 24.5069 63.0897 25.1035 62.3837 25.5178C61.681 25.9321 60.8839 26.1392 59.9924 26.1392C59.1008 26.1392 58.302 25.9321 57.5961 25.5178C56.8934 25.1001 56.3366 24.5019 55.9256 23.723C55.5179 22.9408 55.3141 22.0028 55.3141 20.9091C55.3141 19.812 55.5179 18.8741 55.9256 18.0952C56.3366 17.313 56.8934 16.7147 57.5961 16.3004C58.302 15.8861 59.1008 15.679 59.9924 15.679C60.8839 15.679 61.681 15.8861 62.3837 16.3004C63.0897 16.7147 63.6465 17.313 64.0542 18.0952C64.4651 18.8741 64.6706 19.812 64.6706 20.9091ZM62.8162 20.9091C62.8162 20.1368 62.6953 19.4856 62.4533 18.9553C62.2147 18.4216 61.8832 18.0189 61.459 17.7472C61.0347 17.4721 60.5459 17.3345 59.9924 17.3345C59.4389 17.3345 58.95 17.4721 58.5257 17.7472C58.1015 18.0189 57.7684 18.4216 57.5265 18.9553C57.2878 19.4856 57.1685 20.1368 57.1685 20.9091C57.1685 21.6813 57.2878 22.3343 57.5265 22.8679C57.7684 23.3982 58.1015 23.8009 58.5257 24.076C58.95 24.3478 59.4389 24.4837 59.9924 24.4837C60.5459 24.4837 61.0347 24.3478 61.459 24.076C61.8832 23.8009 62.2147 23.3982 62.4533 22.8679C62.6953 22.3343 62.8162 21.6813 62.8162 20.9091ZM69.8871 26V15.8182H73.7848C74.5206 15.8182 75.1321 15.9342 75.6193 16.1662C76.1098 16.3949 76.4761 16.7081 76.718 17.1058C76.9633 17.5036 77.0859 17.9543 77.0859 18.4581C77.0859 18.8724 77.0064 19.227 76.8473 19.522C76.6882 19.8137 76.4744 20.0507 76.206 20.233C75.9375 20.4152 75.6375 20.5462 75.3061 20.6257V20.7251C75.6674 20.745 76.0137 20.8561 76.3452 21.0582C76.6799 21.2571 76.9534 21.5388 77.1655 21.9034C77.3776 22.268 77.4837 22.7088 77.4837 23.2259C77.4837 23.7528 77.3561 24.2268 77.1009 24.6477C76.8456 25.0653 76.4612 25.3951 75.9474 25.6371C75.4337 25.879 74.7874 26 74.0085 26H69.8871ZM71.7315 24.4588H73.7152C74.3847 24.4588 74.867 24.3312 75.1619 24.076C75.4602 23.8175 75.6094 23.486 75.6094 23.0817C75.6094 22.7801 75.5348 22.5083 75.3857 22.2663C75.2365 22.0211 75.0244 21.8288 74.7493 21.6896C74.4742 21.5471 74.1461 21.4759 73.7649 21.4759H71.7315V24.4588ZM71.7315 20.1484H73.5561C73.8743 20.1484 74.161 20.0904 74.4162 19.9744C74.6714 19.8551 74.8719 19.6877 75.0178 19.4723C75.1669 19.2536 75.2415 18.995 75.2415 18.6967C75.2415 18.3023 75.1023 17.9775 74.8239 17.7223C74.5488 17.4671 74.1394 17.3395 73.5959 17.3395H71.7315V20.1484ZM80.3958 26H78.427L82.0115 15.8182H84.2885L87.878 26H85.9093L83.1898 17.9062H83.1103L80.3958 26ZM80.4604 22.0078H85.8297V23.4893H80.4604V22.0078ZM97.4558 19.2536H95.5964C95.5434 18.9486 95.4456 18.6785 95.3031 18.4432C95.1606 18.2045 94.9833 18.0024 94.7711 17.8366C94.559 17.6709 94.3171 17.5466 94.0453 17.4638C93.7768 17.3776 93.4868 17.3345 93.1752 17.3345C92.6217 17.3345 92.1312 17.4737 91.7037 17.7521C91.2761 18.0272 90.9413 18.4316 90.6994 18.9652C90.4574 19.4955 90.3365 20.1435 90.3365 20.9091C90.3365 21.688 90.4574 22.3442 90.6994 22.8778C90.9447 23.4081 91.2794 23.8092 91.7037 24.081C92.1312 24.3494 92.6201 24.4837 93.1703 24.4837C93.4752 24.4837 93.7602 24.4439 94.0254 24.3643C94.2939 24.2815 94.5342 24.1605 94.7463 24.0014C94.9617 23.8423 95.1423 23.6468 95.2882 23.4148C95.4373 23.1828 95.5401 22.9176 95.5964 22.6193L97.4558 22.6293C97.3862 23.1132 97.2354 23.5672 97.0034 23.9915C96.7747 24.4157 96.4747 24.7902 96.1035 25.1151C95.7323 25.4366 95.2981 25.6884 94.801 25.8707C94.3038 26.0497 93.752 26.1392 93.1454 26.1392C92.2505 26.1392 91.4518 25.9321 90.7491 25.5178C90.0465 25.1035 89.493 24.5052 89.0886 23.723C88.6842 22.9408 88.4821 22.0028 88.4821 20.9091C88.4821 19.812 88.6859 18.8741 89.0936 18.0952C89.5012 17.313 90.0564 16.7147 90.7591 16.3004C91.4617 15.8861 92.2572 15.679 93.1454 15.679C93.7122 15.679 94.2392 15.7585 94.7264 15.9176C95.2136 16.0767 95.6478 16.3104 96.0289 16.6186C96.4101 16.9235 96.7233 17.2981 96.9686 17.7422C97.2172 18.183 97.3796 18.6868 97.4558 19.2536ZM99.1449 26V15.8182H100.989V20.4964H101.114L105.086 15.8182H107.338L103.401 20.3871L107.373 26H105.156L102.118 21.6349L100.989 22.9673V26H99.1449Z" fill="#FEF5FA"/>
<circle cx="21" cy="21" r="21" fill="#333333"/>
<path fill-rule="evenodd" clip-rule="evenodd" d="M12.7122 20.8011L25.3441 33.4329C25.6345 33.7234 25.6345 34.1944 25.3441 34.4849C25.0536 34.7753 24.5826 34.7753 24.2921 34.4849L11.3184 21.5112C11.2047 21.3974 11.1354 21.2559 11.1108 21.1084C10.9334 20.8216 10.969 20.4404 11.2179 20.1916L24.1916 7.21786C24.482 6.92738 24.953 6.92738 25.2435 7.21786C25.534 7.50834 25.534 7.9793 25.2435 8.26978L12.7122 20.8011Z" fill="#FEF5FA"/>
</svg>
