<svg width="42" height="42" viewBox="0 0 42 42" fill="none" xmlns="http://www.w3.org/2000/svg">
<circle cx="21" cy="21" r="21" fill="#333333"/>
<path fill-rule="evenodd" clip-rule="evenodd" d="M21.3314 9.2826L15.0001 15.6138V34.0852C15.0001 34.4994 14.6643 34.8352 14.2501 34.8352C13.8359 34.8352 13.5001 34.4994 13.5001 34.0852V17.1138L8.69946 21.9144C8.40906 22.2049 7.93811 22.2049 7.64758 21.9144C7.35706 21.624 7.35706 21.153 7.64758 20.8625L20.6213 7.8888C20.7351 7.77503 20.8766 7.70582 21.024 7.68116C21.3108 7.50373 21.692 7.53943 21.9409 7.78821L34.9146 20.762C35.2051 21.0524 35.2051 21.5234 34.9146 21.8138C34.6241 22.1043 34.1532 22.1043 33.8627 21.8138L29.0001 16.9513V34.0914C29.0001 34.5022 28.6671 34.8352 28.2563 34.8352C27.8455 34.8352 27.5125 34.5022 27.5125 34.0914V15.579C27.5125 15.5425 27.515 15.5065 27.5201 15.4714L21.3314 9.2826Z" fill="#FEF5FA"/>
</svg>
