<svg width="161" height="134" viewBox="0 0 161 134" fill="none" xmlns="http://www.w3.org/2000/svg">
<path fill-rule="evenodd" clip-rule="evenodd" d="M43.6507 113.457L27 130.108L30.5355 133.643L160.643 3.53552L157.108 0L143.736 13.3713C135.018 14.6869 118.572 19.7398 106.162 32.3203C97.7987 40.7985 91.516 49.8252 88.0535 57.6604C83.8957 56.9459 79.5239 56.5648 75.0128 56.5648C70.4934 56.5648 66.1139 56.9473 61.9492 57.6643C58.4871 49.8282 52.2034 40.7998 43.8384 32.3202C26.634 14.8801 1.67342 11.9066 0.297322 13.3015C-1.07878 14.6965 1.85451 39.9991 19.0589 57.4391C24.0022 62.4501 29.1344 66.7242 34.1012 70.1067C28.3382 75.3153 24.9524 81.6732 24.9524 88.536C24.9524 98.6106 32.2487 107.597 43.6507 113.457ZM75.0128 120.507C67.4138 120.507 60.2102 119.426 53.7587 117.491L149.156 22.0941C147.313 31.3436 142.163 46.0641 130.941 57.4397C126.003 62.4457 120.876 66.7163 115.914 70.0973C121.683 75.3077 125.073 81.669 125.073 88.536C125.073 106.193 102.66 120.507 75.0128 120.507Z" fill="#333333"/>
</svg>
