<svg width="200" height="167" viewBox="0 0 200 167" fill="none" xmlns="http://www.w3.org/2000/svg">
<path fill-rule="evenodd" clip-rule="evenodd" d="M27.0535 0C24.2921 0 22.0535 2.23858 22.0535 5V100H22.0534L0.300926 160.303C-0.874589 163.562 1.53994 167 5.0043 167H194.997C198.307 167 200.704 163.841 199.812 160.653L182.845 100V5C182.845 2.23858 180.607 0 177.845 0H27.0535ZM34.9454 5C32.1839 5 29.9454 7.23858 29.9454 10V90C29.9454 92.7614 32.1839 95 34.9454 95H169.954C172.715 95 174.954 92.7614 174.954 90V10C174.954 7.23858 172.715 5 169.954 5H34.9454ZM129.364 62.4008C129.364 58.8189 127.596 55.5007 124.586 52.7829C127.174 51.0193 129.849 48.7917 132.425 46.1804C141.399 37.0833 142.929 23.8849 142.211 23.1572C141.493 22.4296 128.473 23.9806 119.499 33.0778C115.137 37.5002 111.86 42.2086 110.054 46.2956C107.885 45.9229 105.605 45.7241 103.251 45.7241C100.894 45.7241 98.6095 45.9236 96.4371 46.2977C94.6312 42.2102 91.3536 37.5009 86.9902 33.0777C78.0161 23.9807 64.9963 22.4297 64.2785 23.1573C63.5607 23.8849 65.0908 37.0831 74.0648 46.1802C76.6433 48.794 79.3204 51.0235 81.9112 52.7878C78.9052 55.5047 77.1391 58.821 77.1391 62.4008C77.1391 71.6111 88.83 79.0775 103.251 79.0775C117.673 79.0775 129.364 71.6111 129.364 62.4008Z" fill="#333333"/>
</svg>
