<svg width="300" height="300" viewBox="0 0 300 300" fill="none" xmlns="http://www.w3.org/2000/svg">
<circle cx="150" cy="150" r="150" fill="#333333"/>
<circle cx="150" cy="150" r="125" fill="#333333"/>
<path fill-rule="evenodd" clip-rule="evenodd" d="M199.364 142H274.748C270.623 76.6922 216.348 25 150 25C83.6518 25 29.3769 76.6922 25.252 142H100.637C104.466 118.189 125.109 100 150 100C174.891 100 195.534 118.189 199.364 142Z" fill="#D1071D"/>
<path fill-rule="evenodd" clip-rule="evenodd" d="M101.449 162H25.5686C31.6078 225.406 85.0123 275 150 275C214.988 275 268.392 225.406 274.431 162L198.551 162C193.176 183.819 173.478 200 150 200C126.522 200 106.824 183.819 101.449 162Z" fill="#FEF5FA"/>
<circle cx="150" cy="150" r="30" fill="#FEF5FA"/>
</svg>
