<svg width="75" height="75" viewBox="0 0 75 75" fill="none" xmlns="http://www.w3.org/2000/svg">
<path d="M37.5147 73.2654C57.2593 73.2654 73.2654 57.2593 73.2654 37.5147C73.2654 17.7701 57.2593 1.76402 37.5147 1.76402C17.7702 1.76402 1.76404 17.7701 1.76404 37.5147C1.76404 57.2593 17.7702 73.2654 37.5147 73.2654Z" fill="#D15607"/>
<path d="M41.0239 54.1617C35.3932 54.1617 29.7624 54.1482 24.1317 54.1729C23.0104 54.1779 22.4982 53.8751 22.5 52.5641C22.5135 42.7338 22.4924 32.9036 22.4821 23.073C22.4821 22.9322 22.4779 22.7911 22.4856 22.6508C22.525 21.9208 22.9048 21.5313 23.634 21.5057C24.1729 21.4869 24.713 21.5001 25.2527 21.4998C26.1442 21.4995 27.0376 21.5371 27.927 21.4913C29.3373 21.4184 29.6119 22.0055 29.5969 23.1248C29.5613 25.7755 29.5855 28.4268 29.5855 31.0781C29.5855 31.6411 29.5775 32.2044 29.589 32.7672C29.6084 33.715 29.9341 34.0387 30.8608 34.0514C31.0484 34.054 31.2366 34.0584 31.4239 34.0481C32.0909 34.0117 32.4526 33.6606 32.4699 32.98C32.4908 32.1594 32.477 31.3377 32.4773 30.5166C32.4776 28.1002 32.4773 25.6835 32.4776 23.2671C32.4776 23.0795 32.4737 22.8916 32.4802 22.704C32.5093 21.8985 32.8912 21.5189 33.7147 21.503C34.3947 21.4898 35.0754 21.4995 35.7557 21.4995C36.6003 21.4995 37.445 21.4928 38.2894 21.5022C39.1955 21.5122 39.5665 21.8758 39.5689 22.7914C39.5771 25.9822 39.5721 29.173 39.5742 32.3635C39.5745 32.6213 39.5639 32.8824 39.6006 33.1361C39.68 33.6877 40.034 34.007 40.5964 34.0437C40.9001 34.0634 41.2071 34.064 41.5108 34.0443C42.1044 34.0064 42.4542 33.6689 42.5207 33.075C42.5465 32.8427 42.5386 32.6063 42.5389 32.372C42.5398 29.322 42.5395 26.2721 42.5398 23.2221C42.5398 23.0345 42.5366 22.8466 42.5415 22.6591C42.5651 21.7773 42.9508 21.3837 43.849 21.376C45.3269 21.3634 46.8052 21.3622 48.2831 21.3766C49.1734 21.3854 49.5606 21.7823 49.5626 22.6811C49.57 25.8954 49.5653 29.1095 49.5667 32.3238C49.5667 32.5816 49.5556 32.8424 49.5888 33.0967C49.667 33.6947 50.0163 34.0137 50.6184 34.0458C50.9224 34.0619 51.2293 34.064 51.533 34.0434C52.0905 34.0055 52.4394 33.68 52.5144 33.1229C52.5485 32.8689 52.5388 32.6078 52.5388 32.35C52.5403 29.347 52.5397 26.3438 52.54 23.3408C52.54 23.1298 52.5359 22.9184 52.5429 22.7076C52.5706 21.8785 52.9266 21.5107 53.7601 21.5042C55.3083 21.4922 56.8571 21.4913 58.4053 21.5048C59.2227 21.5119 59.5999 21.9014 59.6354 22.7158C59.6416 22.8563 59.6378 22.9972 59.6378 23.138C59.6287 32.898 59.6193 42.658 59.6093 52.418C59.609 52.6526 59.619 52.889 59.5943 53.1212C59.5275 53.7501 59.1759 54.0961 58.55 54.152C58.3171 54.1729 58.081 54.1611 57.8464 54.1611C52.2383 54.1617 46.6311 54.1617 41.0239 54.1617Z" fill="#FEF5FA"/>
<path d="M20.1468 42.6495C20.1468 45.9076 20.1471 49.1657 20.1459 52.4239C20.1459 52.6814 20.1527 52.9413 20.1238 53.1965C20.0562 53.7936 19.7331 54.1179 19.1339 54.2064C18.9725 54.2302 18.8058 54.217 18.6432 54.2349C17.7712 54.3305 17.2362 53.9997 16.8325 53.1668C15.7285 50.8903 14.5284 48.66 13.353 46.4183C13.1407 46.0131 13.0172 45.608 13.0196 45.147C13.0278 43.4829 13.0237 41.8186 13.0099 40.1543C13.006 39.6959 13.1084 39.2811 13.3197 38.8748C14.5519 36.5042 15.7835 34.1334 16.991 31.7505C17.247 31.2451 17.5945 31.0037 18.1523 31.0322C18.4795 31.049 18.8105 31.0193 19.1354 31.0522C19.7513 31.1146 20.105 31.4838 20.1656 32.1021C20.1862 32.3112 20.1765 32.5237 20.1765 32.7345C20.1771 36.0397 20.1768 39.3446 20.1768 42.6497C20.1668 42.6495 20.1568 42.6495 20.1468 42.6495Z" fill="#FEF5FA"/>
</svg>
