<svg width="99" height="36" viewBox="0 0 99 36" fill="none" xmlns="http://www.w3.org/2000/svg">
<rect y="5" width="79" height="26" rx="13" fill="#333333"/>
<path d="M22.544 25H20.4474L25.1584 11.9091H27.4403L32.1513 25H30.0547L26.3537 14.2869H26.2514L22.544 25ZM22.8956 19.8736H29.6967V21.5355H22.8956V19.8736ZM38.2797 25H34.0417V11.9091H38.4139C39.6966 11.9091 40.7981 12.1712 41.7186 12.6953C42.639 13.2152 43.3443 13.9631 43.8343 14.9389C44.3287 15.9105 44.5758 17.076 44.5758 18.4354C44.5758 19.799 44.3265 20.9709 43.8279 21.951C43.3336 22.9311 42.6177 23.6854 41.6802 24.2138C40.7427 24.7379 39.6092 25 38.2797 25ZM36.0169 23.2741H38.171C39.1681 23.2741 39.997 23.0866 40.6575 22.7116C41.318 22.3324 41.8123 21.7848 42.1404 21.0689C42.4686 20.3487 42.6326 19.4709 42.6326 18.4354C42.6326 17.4084 42.4686 16.5369 42.1404 15.821C41.8166 15.1051 41.3329 14.5618 40.6895 14.1911C40.046 13.8203 39.247 13.6349 38.2924 13.6349H36.0169V23.2741ZM51.2699 25H47.032V11.9091H51.4041C52.6868 11.9091 53.7884 12.1712 54.7088 12.6953C55.6293 13.2152 56.3345 13.9631 56.8246 14.9389C57.3189 15.9105 57.5661 17.076 57.5661 18.4354C57.5661 19.799 57.3168 20.9709 56.8182 21.951C56.3239 22.9311 55.608 23.6854 54.6705 24.2138C53.733 24.7379 52.5994 25 51.2699 25ZM49.0071 23.2741H51.1612C52.1584 23.2741 52.9872 23.0866 53.6477 22.7116C54.3082 22.3324 54.8026 21.7848 55.1307 21.0689C55.4588 20.3487 55.6229 19.4709 55.6229 18.4354C55.6229 17.4084 55.4588 16.5369 55.1307 15.821C54.8068 15.1051 54.3232 14.5618 53.6797 14.1911C53.0362 13.8203 52.2372 13.6349 51.2827 13.6349H49.0071V23.2741Z" fill="white"/>
<circle cx="81" cy="18" r="18" fill="#333333"/>
<path fill-rule="evenodd" clip-rule="evenodd" d="M80.0945 29.615C80.0945 30.2077 80.575 30.6882 81.1677 30.6882C81.7604 30.6882 82.2409 30.2077 82.2409 29.615L82.2409 19.2408H92.6151C93.2078 19.2408 93.6883 18.7603 93.6883 18.1676C93.6883 17.5749 93.2078 17.0944 92.6151 17.0944H82.2409L82.2409 6.72038C82.2409 6.12768 81.7604 5.6472 81.1677 5.6472C80.575 5.6472 80.0945 6.12768 80.0945 6.72039L80.0945 17.0944L69.7205 17.0944C69.1278 17.0944 68.6473 17.5749 68.6473 18.1676C68.6473 18.7603 69.1278 19.2408 69.7205 19.2408L80.0945 19.2408L80.0945 29.615Z" fill="#FEF5FA"/>
</svg>
