<svg width="32" height="32" viewBox="0 0 32 32" fill="none" xmlns="http://www.w3.org/2000/svg">
<path fill-rule="evenodd" clip-rule="evenodd" d="M21.7489 19.7974C23.0969 18.0377 23.8979 15.8369 23.8979 13.449C23.8979 7.67815 19.2197 3 13.449 3C7.67815 3 3 7.67815 3 13.449C3 19.2197 7.67815 23.8979 13.449 23.8979C15.9281 23.8979 18.2055 23.0345 19.9971 21.5921L27.2677 28.8627C27.7574 29.3524 28.5513 29.3524 29.041 28.8627C29.5306 28.3731 29.5306 27.5791 29.041 27.0895L21.7489 19.7974ZM18.9999 19.1279C18.7519 19.3703 18.4881 19.5966 18.2102 19.8052C16.8835 20.8005 15.2351 21.3902 13.449 21.3902C9.06321 21.3902 5.50781 17.8348 5.50781 13.449C5.50781 9.06316 9.06321 5.50776 13.449 5.50776C17.8348 5.50776 21.3902 9.06316 21.3902 13.449C21.3902 15.1435 20.8594 16.7141 19.9551 18.0036C19.6717 18.4075 19.3518 18.7839 18.9999 19.1279Z" fill="#333333"/>
<path d="M13.8669 10.4219C13.8669 11.576 12.9313 12.5117 11.7771 12.5117C10.623 12.5117 9.68733 11.576 9.68733 10.4219C9.68733 9.26771 10.623 8.33208 11.7771 8.33208C12.9313 8.33208 13.8669 9.26771 13.8669 10.4219Z" fill="#333333"/>
</svg>
