<svg width="192" height="222" viewBox="0 0 192 222" fill="none" xmlns="http://www.w3.org/2000/svg">
<path d="M23.3523 28.7273L44.446 95.0341H45.2557L66.392 28.7273H86.8466L56.7614 116H32.983L2.85511 28.7273H23.3523Z" fill="#333333"/>
<path d="M167.929 130.827C167.588 127.389 166.125 124.719 163.54 122.815C160.955 120.912 157.446 119.96 153.014 119.96C150.003 119.96 147.46 120.386 145.386 121.239C143.313 122.062 141.722 123.213 140.614 124.69C139.534 126.168 138.994 127.844 138.994 129.719C138.938 131.281 139.264 132.645 139.974 133.81C140.713 134.974 141.722 135.983 143 136.835C144.278 137.659 145.756 138.384 147.432 139.009C149.108 139.605 150.898 140.116 152.801 140.543L160.642 142.418C164.449 143.27 167.943 144.406 171.125 145.827C174.307 147.247 177.063 148.994 179.392 151.068C181.722 153.142 183.526 155.585 184.804 158.398C186.111 161.21 186.778 164.435 186.807 168.071C186.778 173.412 185.415 178.043 182.716 181.963C180.045 185.855 176.182 188.881 171.125 191.04C166.097 193.17 160.031 194.236 152.929 194.236C145.884 194.236 139.747 193.156 134.52 190.997C129.321 188.838 125.259 185.642 122.332 181.409C119.435 177.148 117.915 171.878 117.773 165.599H135.628C135.827 168.526 136.665 170.969 138.142 172.929C139.648 174.861 141.651 176.324 144.151 177.318C146.679 178.284 149.534 178.767 152.716 178.767C155.841 178.767 158.554 178.312 160.855 177.403C163.185 176.494 164.989 175.23 166.267 173.611C167.545 171.991 168.185 170.131 168.185 168.028C168.185 166.068 167.602 164.42 166.438 163.085C165.301 161.75 163.625 160.614 161.409 159.676C159.222 158.739 156.537 157.886 153.355 157.119L143.852 154.733C136.494 152.943 130.685 150.145 126.423 146.338C122.162 142.531 120.045 137.403 120.074 130.955C120.045 125.67 121.452 121.054 124.293 117.105C127.162 113.156 131.097 110.074 136.097 107.858C141.097 105.642 146.778 104.534 153.142 104.534C159.619 104.534 165.273 105.642 170.102 107.858C174.96 110.074 178.739 113.156 181.438 117.105C184.136 121.054 185.528 125.628 185.614 130.827H167.929Z" fill="#FEF5FA"/>
<path fill-rule="evenodd" clip-rule="evenodd" d="M96.9999 92.9578L56.7061 199.227L61.3813 201L96.9999 107.061V92.9578Z" fill="#333333"/>
<path fill-rule="evenodd" clip-rule="evenodd" d="M97 110.042L137.294 3.77271L132.619 2.00003L97 95.9395L97 110.042Z" fill="#FEF5FA"/>
</svg>
