<svg width="24" height="25" viewBox="0 0 24 25" fill="none" xmlns="http://www.w3.org/2000/svg">
<circle cx="12" cy="12.1508" r="12" fill="#333333"/>
<circle cx="12" cy="12.1508" r="12" fill="#333333"/>
<path fill-rule="evenodd" clip-rule="evenodd" d="M7.22139 6.36031C6.94199 6.08091 6.48899 6.08091 6.20959 6.36031C5.93018 6.63971 5.93018 7.09271 6.20959 7.37212L11.1 12.2625L6.20955 17.1529C5.93015 17.4323 5.93015 17.8853 6.20955 18.1648C6.48896 18.4442 6.94196 18.4442 7.22136 18.1648L12.1118 13.2743L17.0022 18.1647C17.2816 18.4441 17.7346 18.4441 18.014 18.1647C18.2934 17.8853 18.2934 17.4323 18.014 17.1529L13.1236 12.2625L18.014 7.37214C18.2934 7.09274 18.2934 6.63974 18.014 6.36033C17.7346 6.08093 17.2816 6.08093 17.0022 6.36033L12.1118 11.2507L7.22139 6.36031Z" fill="#FEF5FA"/>
</svg>
